<?xml version="1.0" encoding="utf-8"?>
<!-- Generator: Adobe Illustrator 16.0.0, SVG Export Plug-In . SVG Version: 6.00 Build 0)  -->
<!DOCTYPE svg PUBLIC "-//W3C//DTD SVG 1.1//EN" "http://www.w3.org/Graphics/SVG/1.1/DTD/svg11.dtd">
<svg version="1.1" id="Layer_1" xmlns="http://www.w3.org/2000/svg" xmlns:xlink="http://www.w3.org/1999/xlink" x="0px" y="0px"
	 width="157.377px" height="69.021px" viewBox="0 0 157.377 69.021" enable-background="new 0 0 157.377 69.021"
	 xml:space="preserve">
<g>
	<path d="M8.036,14.554c-0.574-0.479-1.226-0.84-1.939-1.075c-0.706-0.233-1.418-0.352-2.118-0.352H0v11.48h3.979
		c0.699,0,1.412-0.118,2.117-0.352c0.711-0.233,1.364-0.596,1.939-1.074c0.578-0.479,1.052-1.087,1.409-1.805
		c0.358-0.725,0.541-1.569,0.541-2.51c0-0.951-0.182-1.799-0.542-2.519C9.088,15.64,8.615,15.036,8.036,14.554z M2.066,15.104h1.572
		c0.73,0,1.366,0.109,1.888,0.325c0.523,0.217,0.96,0.503,1.299,0.849c0.339,0.348,0.593,0.747,0.755,1.187
		c0.166,0.451,0.25,0.924,0.25,1.403s-0.084,0.952-0.25,1.403c-0.163,0.441-0.417,0.841-0.755,1.186
		c-0.342,0.352-0.779,0.637-1.298,0.85c-0.521,0.215-1.157,0.324-1.889,0.324H2.066V15.104z"/>
	<path d="M40.566,19.948c0,0.672-0.09,1.202-0.269,1.574c-0.178,0.37-0.383,0.645-0.613,0.816c-0.233,0.176-0.474,0.289-0.717,0.338
		c-0.569,0.117-0.769,0.117-1.341,0c-0.244-0.049-0.479-0.159-0.717-0.339c-0.229-0.171-0.434-0.445-0.611-0.816
		c-0.179-0.371-0.27-0.9-0.27-1.573v-6.954h-2.065v7.072c0,0.465,0.056,0.966,0.167,1.488c0.116,0.55,0.339,1.066,0.662,1.534
		c0.328,0.476,0.782,0.874,1.349,1.184c0.569,0.312,1.294,0.469,2.156,0.469c0.873,0,1.602-0.158,2.167-0.47
		c0.561-0.31,1.011-0.707,1.339-1.183c0.322-0.466,0.545-0.981,0.663-1.534c0.11-0.521,0.166-1.021,0.166-1.488v-7.072h-2.066
		V19.948z"/>
	<polygon points="66.142,38.136 68.207,38.136 68.207,33.177 73.091,33.177 73.091,31.199 68.207,31.199 68.207,28.633 
		73.461,28.633 73.461,26.655 66.142,26.655 	"/>
	<polygon points="66.402,11.48 68.468,11.48 68.468,6.521 73.354,6.521 73.354,4.544 68.468,4.544 68.468,1.978 73.724,1.978 
		73.724,0 66.402,0 	"/>
	<polygon points="101.027,13.127 98.182,17.635 95.332,13.127 92.799,13.127 97.148,19.742 97.148,24.607 99.213,24.607 
		99.213,19.742 103.564,13.127 	"/>
</g>
<g>
	<path d="M66.833,68.073h3.725v0.745H66.02v-7.992h0.813V68.073z"/>
	<path d="M88.258,64.822c0,0.609-0.105,1.17-0.314,1.682c-0.211,0.512-0.504,0.954-0.875,1.327
		c-0.373,0.372-0.812,0.664-1.322,0.874c-0.508,0.211-1.059,0.316-1.652,0.316c-0.596,0-1.146-0.105-1.654-0.316
		c-0.508-0.21-0.948-0.502-1.32-0.874c-0.373-0.373-0.665-0.815-0.875-1.327c-0.211-0.512-0.316-1.072-0.316-1.682
		s0.105-1.17,0.316-1.682c0.21-0.512,0.502-0.954,0.875-1.327c0.372-0.372,0.812-0.664,1.32-0.874
		c0.508-0.211,1.059-0.316,1.654-0.316c0.594,0,1.145,0.105,1.652,0.316c0.51,0.21,0.949,0.502,1.322,0.874
		c0.371,0.373,0.664,0.815,0.875,1.327C88.152,63.652,88.258,64.213,88.258,64.822z M87.379,64.822c0-0.459-0.076-0.897-0.227-1.315
		c-0.15-0.417-0.367-0.784-0.648-1.101c-0.283-0.315-0.627-0.567-1.033-0.756s-0.865-0.282-1.377-0.282s-0.972,0.094-1.378,0.282
		s-0.751,0.44-1.032,0.756c-0.283,0.316-0.5,0.684-0.65,1.101c-0.15,0.418-0.225,0.856-0.225,1.315s0.074,0.897,0.225,1.315
		c0.15,0.417,0.367,0.784,0.65,1.101c0.281,0.315,0.626,0.568,1.032,0.756c0.406,0.188,0.866,0.282,1.378,0.282
		s0.971-0.094,1.377-0.282c0.406-0.188,0.75-0.44,1.033-0.756c0.281-0.316,0.498-0.684,0.648-1.101
		C87.303,65.72,87.379,65.281,87.379,64.822z"/>
	<path d="M104.242,67.6h0.023v-6.773h0.812v7.992h-1.016l-4.764-6.841h-0.023v6.841h-0.812v-7.992h1.016L104.242,67.6z"/>
	<path d="M115.711,60.826h2.654c0.496,0,0.994,0.083,1.494,0.248c0.502,0.166,0.953,0.416,1.355,0.751s0.729,0.753,0.977,1.253
		c0.248,0.501,0.373,1.082,0.373,1.744c0,0.67-0.125,1.253-0.373,1.75c-0.248,0.496-0.574,0.912-0.977,1.247
		s-0.854,0.585-1.355,0.751c-0.5,0.165-0.998,0.248-1.494,0.248h-2.654V60.826z M116.525,68.073h1.58
		c0.609,0,1.137-0.092,1.586-0.276c0.447-0.185,0.82-0.429,1.117-0.733c0.297-0.306,0.518-0.651,0.66-1.039s0.215-0.788,0.215-1.202
		s-0.072-0.814-0.215-1.202s-0.363-0.733-0.66-1.039c-0.297-0.305-0.67-0.549-1.117-0.733c-0.449-0.185-0.977-0.276-1.586-0.276
		h-1.58V68.073z"/>
	<path d="M140.557,64.822c0,0.609-0.105,1.17-0.314,1.682c-0.211,0.512-0.504,0.954-0.875,1.327
		c-0.373,0.372-0.812,0.664-1.322,0.874c-0.508,0.211-1.059,0.316-1.652,0.316c-0.596,0-1.146-0.105-1.654-0.316
		c-0.508-0.21-0.947-0.502-1.32-0.874c-0.373-0.373-0.664-0.815-0.875-1.327s-0.316-1.072-0.316-1.682s0.105-1.17,0.316-1.682
		s0.502-0.954,0.875-1.327c0.373-0.372,0.812-0.664,1.32-0.874c0.508-0.211,1.059-0.316,1.654-0.316
		c0.594,0,1.145,0.105,1.652,0.316c0.51,0.21,0.949,0.502,1.322,0.874c0.371,0.373,0.664,0.815,0.875,1.327
		C140.451,63.652,140.557,64.213,140.557,64.822z M139.678,64.822c0-0.459-0.076-0.897-0.227-1.315
		c-0.15-0.417-0.367-0.784-0.648-1.101c-0.283-0.315-0.627-0.567-1.033-0.756s-0.865-0.282-1.377-0.282s-0.971,0.094-1.377,0.282
		s-0.752,0.44-1.033,0.756c-0.283,0.316-0.5,0.684-0.65,1.101c-0.15,0.418-0.225,0.856-0.225,1.315s0.074,0.897,0.225,1.315
		c0.15,0.417,0.367,0.784,0.65,1.101c0.281,0.315,0.627,0.568,1.033,0.756c0.406,0.188,0.865,0.282,1.377,0.282
		s0.971-0.094,1.377-0.282c0.406-0.188,0.75-0.44,1.033-0.756c0.281-0.316,0.498-0.684,0.648-1.101
		C139.602,65.72,139.678,65.281,139.678,64.822z"/>
	<path d="M156.541,67.6h0.023v-6.773h0.812v7.992h-1.016l-4.764-6.841h-0.023v6.841h-0.812v-7.992h1.016L156.541,67.6z"/>
</g>
</svg>
